<svg width="122" height="26" viewBox="0 0 122 26" fill="none" xmlns="http://www.w3.org/2000/svg">
<path d="M0.674375 21.512C0.674375 21.064 0.717042 20.7973 0.802375 20.712C1.39971 20.6267 1.87971 20.584 2.24238 20.584C2.30638 20.584 2.41304 20.5947 2.56238 20.616C2.73304 20.616 2.86104 20.616 2.94638 20.616C2.79704 18.696 2.72238 17.0213 2.72238 15.592C2.72238 13.672 2.86104 10.792 3.13838 6.952C2.43438 7.144 1.95438 7.24 1.69838 7.24C1.50638 7.24 1.37838 7.21867 1.31438 7.176C0.973042 6.92 0.802375 6.32267 0.802375 5.384C0.802375 4.38133 0.941042 3.66667 1.21838 3.24C2.58371 2.6 4.91971 2.28 8.22638 2.28C10.2957 2.28 12.4504 2.39733 14.6904 2.632C16.9304 2.86667 18.4877 3.13333 19.3624 3.432C19.5757 4.49867 19.6824 5.32 19.6824 5.896C19.6824 6.89867 19.437 7.72 18.9464 8.36C18.5197 8.46667 18.0717 8.52 17.6024 8.52C16.3864 8.52 15.6077 8.17867 15.2664 7.496L15.3624 6.44C14.9357 6.16267 13.8264 6.024 12.0344 6.024C11.4157 6.024 10.6477 6.056 9.73038 6.12C8.83438 6.184 8.37571 6.248 8.35438 6.312C8.05571 7.35733 7.77838 8.98933 7.52238 11.208C9.35704 11.208 10.285 11.176 10.3064 11.112C10.3064 10.5787 10.413 10.2053 10.6264 9.992C11.309 9.84267 11.693 9.768 11.7784 9.768C12.397 9.768 12.9624 9.87467 13.4744 10.088C13.8584 10.536 14.0504 11.3467 14.0504 12.52C14.0504 13.1813 13.9864 13.8213 13.8584 14.44C13.7517 15.0373 13.613 15.4213 13.4424 15.592C13.2504 15.7413 12.6424 15.816 11.6184 15.816C11.0424 15.816 10.6904 15.752 10.5624 15.624C10.5197 15.5813 10.4664 15.528 10.4024 15.464C10.3597 15.3787 10.3277 15.3253 10.3064 15.304C10.285 15.2613 10.2637 15.2187 10.2424 15.176C10.221 15.112 10.1997 15.048 10.1784 14.984C10.1784 14.92 10.1784 14.8347 10.1784 14.728H7.29838C7.29838 16.6267 7.35171 18.6427 7.45837 20.776C7.65038 20.712 7.95971 20.68 8.38638 20.68C8.94104 20.68 9.25038 20.7227 9.31438 20.808C9.52771 21.0853 9.63438 21.8533 9.63438 23.112C9.63438 24.136 9.61304 24.648 9.57038 24.648C8.88771 25.1813 7.56504 25.448 5.60238 25.448C3.42638 25.448 1.92238 25.2347 1.09038 24.808C0.813042 24.4453 0.674375 23.3467 0.674375 21.512ZM18.1981 18.376C18.1981 16.84 18.4221 15.3573 18.8701 13.928C19.3395 12.4773 20.0755 11.2293 21.0781 10.184C22.1021 9.13867 23.2968 8.616 24.6621 8.616C25.2808 8.616 25.8248 8.72267 26.2941 8.936C26.7848 9.14933 27.1581 9.416 27.4141 9.736C27.6915 10.0347 27.9155 10.344 28.0861 10.664C28.2568 10.9627 28.3741 11.2187 28.4381 11.432C28.5021 11.6453 28.5448 11.752 28.5661 11.752C28.5661 10.6 28.5555 9.84267 28.5341 9.48C28.9608 9.11733 29.3981 8.88267 29.8461 8.776C30.3155 8.648 30.9555 8.584 31.7661 8.584C32.4061 8.584 32.9715 8.60533 33.4621 8.648C33.9741 8.69067 34.3581 8.744 34.6141 8.808C34.8701 8.872 35.0728 8.936 35.2221 9C35.3928 9.064 35.4995 9.10667 35.5421 9.128L35.6061 9.16C35.6915 9.352 35.7341 9.94933 35.7341 10.952C35.7341 11.976 35.6915 12.584 35.6061 12.776C35.5421 12.9253 35.2008 13.064 34.5821 13.192C33.9635 13.2987 33.4301 13.352 32.9821 13.352C32.7688 13.352 32.5341 13.3307 32.2781 13.288C32.3421 13.416 32.3741 13.96 32.3741 14.92C32.3741 17.7147 32.2781 19.2613 32.0861 19.56C32.2355 19.496 32.4168 19.464 32.6301 19.464C33.5688 19.464 34.4861 19.56 35.3821 19.752C35.5528 19.88 35.6381 20.7867 35.6381 22.472C35.6381 23.4107 35.6061 24.008 35.5421 24.264C35.3928 24.4987 34.9235 24.7227 34.1341 24.936C33.3448 25.1493 32.4488 25.256 31.4461 25.256C29.6328 25.256 28.5128 25.2133 28.0861 25.128C27.9368 24.7227 27.8621 24.3813 27.8621 24.104C27.8621 23.9333 27.8941 23.8053 27.9581 23.72C27.7021 23.8053 26.9768 24.1253 25.7821 24.68C24.5875 25.2347 23.7235 25.512 23.1901 25.512C21.5475 25.512 20.2995 24.8187 19.4461 23.432C18.6141 22.0453 18.1981 20.36 18.1981 18.376ZM22.1981 17.544C22.1981 18.7387 22.5608 19.752 23.2861 20.584C24.0328 21.3947 24.8115 21.8 25.6221 21.8C26.0701 21.8 26.5821 21.6827 27.1581 21.448C27.7341 21.2133 28.0435 21 28.0861 20.808C28.1501 19.8267 28.2035 18.9307 28.2461 18.12C28.3101 17.288 28.3528 16.6587 28.3741 16.232C28.4168 15.784 28.4381 15.496 28.4381 15.368V14.984C28.4381 14.536 28.1395 14.0987 27.5421 13.672C26.9661 13.224 26.3155 13 25.5901 13C24.5235 13 23.6915 13.4907 23.0941 14.472C22.4968 15.432 22.1981 16.456 22.1981 17.544ZM37.7516 12.36C37.7516 10.888 37.8583 9.98133 38.0716 9.64C39.6716 9.21333 41.0583 9 42.2316 9C43.0636 9 44.0236 9.192 45.1116 9.576C45.261 9.68267 45.421 10.0667 45.5916 10.728C45.7623 11.368 45.8476 11.9227 45.8476 12.392C45.8476 13.096 45.6556 13.704 45.2716 14.216C45.037 14.3653 44.7276 14.44 44.3436 14.44C44.045 14.44 43.757 14.3867 43.4796 14.28C43.4796 14.344 43.469 14.6213 43.4476 15.112C43.4476 15.6027 43.4476 15.912 43.4476 16.04C43.4476 17.384 43.8103 18.568 44.5356 19.592C45.2823 20.5947 46.2103 21.096 47.3196 21.096C48.2796 21.096 49.1543 20.712 49.9436 19.944C50.7543 19.1547 51.1596 17.928 51.1596 16.264C51.1596 15.6667 51.1276 14.888 51.0636 13.928C50.8076 14.0773 50.477 14.152 50.0716 14.152C49.6876 14.152 49.453 14.0987 49.3676 13.992C49.1543 13.992 49.0476 13.5653 49.0476 12.712C49.0476 12.52 49.1543 11.6453 49.3676 10.088C50.9036 9.34133 52.8876 8.968 55.3196 8.968C57.1543 8.968 58.3276 9.27733 58.8396 9.896C59.0316 10.152 59.1276 10.6 59.1276 11.24C59.1276 12.5627 58.8396 13.384 58.2636 13.704C57.4956 13.896 56.8556 13.992 56.3436 13.992C56.045 13.992 55.789 13.9707 55.5756 13.928C55.5756 14.5467 55.597 15.5493 55.6396 16.936C55.6823 18.3013 55.7036 19.336 55.7036 20.04C55.789 20.04 56.141 20.0187 56.7596 19.976C57.3783 19.912 57.741 19.88 57.8476 19.88C57.933 19.88 58.061 19.9013 58.2316 19.944C58.4023 19.9867 58.5303 20.008 58.6156 20.008C58.701 20.0933 58.7436 20.3173 58.7436 20.68C58.7436 21.256 58.6583 21.9813 58.4876 22.856C58.317 23.7093 58.157 24.232 58.0076 24.424C57.3676 24.808 56.1516 25 54.3596 25C53.2076 25 52.4396 24.9253 52.0556 24.776C51.6716 24.6267 51.4796 24.296 51.4796 23.784C51.4796 23.144 51.533 22.504 51.6396 21.864C49.6343 24.168 47.469 25.32 45.1436 25.32C41.4743 25.32 39.6396 22.7387 39.6396 17.576C39.6396 16.552 39.7036 15.5493 39.8316 14.568C39.8103 14.5893 39.7143 14.6 39.5436 14.6C39.2236 14.6 38.7223 14.5467 38.0396 14.44C37.8476 14.2267 37.7516 13.5333 37.7516 12.36ZM61.2591 22.76C61.2591 21.4373 61.5471 20.616 62.1231 20.296C62.6565 20.104 63.3818 20.008 64.2991 20.008C64.4271 20.008 64.5978 20.0293 64.8111 20.072C64.8111 19.4533 64.7898 18.4613 64.7471 17.096C64.7045 15.7093 64.6831 14.664 64.6831 13.96C64.5978 13.96 64.2458 13.992 63.6271 14.056C63.0085 14.0987 62.6458 14.12 62.5391 14.12C62.4538 14.12 62.3258 14.0987 62.1551 14.056C61.9845 14.0133 61.8565 13.992 61.7711 13.992C61.6858 13.9067 61.6431 13.6827 61.6431 13.32C61.6431 12.744 61.7285 12.0293 61.8991 11.176C62.0698 10.3013 62.2298 9.768 62.3791 9.576C62.9978 9.192 64.1285 9 65.7711 9C67.0725 9 67.9151 9.07467 68.2991 9.224C68.7045 9.352 68.9071 9.68267 68.9071 10.216C68.9071 10.856 68.8538 11.496 68.7471 12.136C70.7525 9.832 72.9178 8.68 75.2431 8.68C78.9125 8.68 80.7471 11.2613 80.7471 16.424C80.7471 17.4693 80.6831 18.4827 80.5551 19.464C80.5551 19.4213 80.6511 19.4 80.8431 19.4C81.1631 19.4 81.6645 19.4533 82.3471 19.56C82.5391 19.7733 82.6351 20.4667 82.6351 21.64C82.6351 23.112 82.5285 24.0187 82.3151 24.36C80.7151 24.7867 79.3285 25 78.1551 25C77.3231 25 76.3631 24.808 75.2751 24.424C75.1258 24.3173 74.9658 23.944 74.7951 23.304C74.6245 22.6427 74.5391 22.0773 74.5391 21.608C74.5391 20.904 74.7311 20.296 75.1151 19.784C75.3498 19.6347 75.6591 19.56 76.0431 19.56C76.3418 19.56 76.6298 19.6133 76.9071 19.72C76.9071 19.656 76.9071 19.3787 76.9071 18.888C76.9285 18.3973 76.9391 18.088 76.9391 17.96C76.9391 16.616 76.5658 15.4427 75.8191 14.44C75.0938 13.416 74.1765 12.904 73.0671 12.904C72.1071 12.904 71.2218 13.2987 70.4111 14.088C69.6218 14.856 69.2271 16.072 69.2271 17.736C69.2271 18.3333 69.2591 19.112 69.3231 20.072C69.5791 19.9227 69.9098 19.848 70.3151 19.848C70.6991 19.848 70.9338 19.9013 71.0191 20.008C71.2325 20.008 71.3391 20.4347 71.3391 21.288C71.3391 21.48 71.2325 22.3547 71.0191 23.912C69.4831 24.6587 67.5311 25.032 65.1631 25.032C63.2218 25.032 62.0165 24.7333 61.5471 24.136C61.3551 23.9013 61.2591 23.4427 61.2591 22.76ZM84.4474 16.872C84.4474 14.7173 85.0767 12.808 86.3354 11.144C87.6154 9.45867 89.3327 8.616 91.4874 8.616C92.2554 8.616 93.0874 8.744 93.9834 9C93.9834 8.95733 93.962 8.54133 93.9194 7.752C93.898 6.94133 93.8874 6.088 93.8874 5.192C93.8874 3.08 93.9407 1.91733 94.0474 1.704C94.794 1.064 96.426 0.743999 98.9434 0.743999C99.4767 0.743999 99.9567 0.765333 100.383 0.807999C100.81 0.850666 101.119 0.903999 101.311 0.967999C101.525 1.032 101.695 1.096 101.823 1.16C101.951 1.224 102.026 1.27733 102.047 1.32L102.111 1.352C102.197 1.544 102.239 2.14133 102.239 3.144C102.239 4.168 102.197 4.776 102.111 4.968C101.407 5.352 100.309 5.544 98.8154 5.544C98.5594 5.544 98.3887 5.53333 98.3034 5.512C98.3034 6.6 98.3247 8.24267 98.3674 10.44C98.4314 12.6373 98.4634 14.2587 98.4634 15.304C98.4634 16.648 98.4314 17.9813 98.3674 19.304C98.5167 19.2187 98.9007 19.176 99.5194 19.176C100.735 19.176 101.514 19.2827 101.855 19.496C102.026 19.624 102.111 20.5307 102.111 22.216C102.111 23.1547 102.079 23.752 102.015 24.008C101.503 24.6693 100.245 25 98.2394 25C97.0234 25 95.9034 24.9573 94.8794 24.872C94.7727 24.4667 94.7194 24.0933 94.7194 23.752C94.7194 23.5813 94.73 23.4853 94.7514 23.464C94.41 23.5707 93.7167 23.9013 92.6714 24.456C91.6474 24.9893 90.7834 25.256 90.0794 25.256C88.9487 25.256 87.9354 24.7973 87.0394 23.88C86.1434 22.9627 85.482 21.8747 85.0554 20.616C84.65 19.3573 84.4474 18.1093 84.4474 16.872ZM88.4474 16.52C88.4474 17.8427 88.778 18.9093 89.4394 19.72C90.122 20.5307 90.8687 20.936 91.6794 20.936C92.1914 20.936 92.7567 20.7973 93.3754 20.52C93.994 20.2213 94.3034 19.976 94.3034 19.784C94.282 18.888 94.2607 17.96 94.2394 17C94.218 16.04 94.1967 15.304 94.1754 14.792C94.1754 14.28 94.1647 13.8853 94.1434 13.608C94.1434 13.2027 93.8447 12.8187 93.2474 12.456C92.6714 12.072 92.0527 11.88 91.3914 11.88C90.666 11.88 90.0687 12.168 89.5994 12.744C89.13 13.2987 88.8207 13.9067 88.6714 14.568C88.522 15.208 88.4474 15.8587 88.4474 16.52ZM103.374 24.072C103.374 23.2187 104.206 22.0027 105.87 20.424C107.534 18.824 109.208 17.416 110.894 16.2C112.6 14.984 114.083 13.992 115.342 13.224C114.787 12.648 114.019 12.36 113.038 12.36C111.864 12.36 110.382 12.7973 108.59 13.672C108.654 13.864 108.686 14.12 108.686 14.44C108.686 14.6533 108.654 14.8027 108.59 14.888C108.014 15.0587 107.427 15.144 106.83 15.144C105.998 15.144 105.336 14.984 104.846 14.664C104.483 14.536 104.302 13.768 104.302 12.36C104.302 11.8267 104.323 11.3147 104.366 10.824C104.43 10.312 104.504 9.896 104.59 9.576C104.675 9.256 104.76 9.10667 104.846 9.128C105.038 9.064 105.56 9.032 106.414 9.032C107.971 9.032 108.792 9.11733 108.878 9.288C109.006 9.30933 109.08 9.544 109.102 9.992C110.872 9.33067 112.675 9 114.51 9C115.939 9 117.262 9.192 118.478 9.576C119.694 9.93867 120.664 10.3867 121.39 10.92C121.027 11.816 120.43 12.744 119.598 13.704C118.766 14.664 117.838 15.56 116.814 16.392C115.79 17.224 114.851 17.9493 113.998 18.568C113.144 19.1653 112.302 19.7307 111.47 20.264C110.638 20.776 110.211 21.0427 110.19 21.064C110.659 21.2987 111.32 21.416 112.174 21.416C113.155 21.416 114.115 21.2667 115.054 20.968C116.014 20.6693 116.707 20.2533 117.134 19.72C117.112 19.6347 117.102 19.5173 117.102 19.368C117.102 19.0693 117.219 18.7067 117.454 18.28C117.859 18.1093 118.456 18.024 119.246 18.024C119.992 18.024 120.558 18.1093 120.942 18.28C121.176 18.4507 121.336 18.664 121.422 18.92C121.507 19.1547 121.55 19.6027 121.55 20.264C121.55 21.2667 121.475 22.28 121.326 23.304C121.198 24.3067 121.048 24.84 120.878 24.904C120.451 24.9893 119.8 25.032 118.926 25.032C117.667 25.032 116.974 24.936 116.846 24.744C116.739 24.7227 116.664 24.3813 116.622 23.72C116.067 24.1467 115.011 24.4667 113.454 24.68C111.896 24.8933 110.414 25 109.006 25C106.36 25 104.483 24.6907 103.374 24.072Z" fill="#6765E8"/>
</svg>
